<svg width="252" height="34" viewBox="0 0 252 34" fill="none" xmlns="http://www.w3.org/2000/svg">
<path d="M44.0586 24.8133C44.0586 26.499 45.4352 27.8614 47.1288 27.8614H63.8476V23.3087H48.9353V18.7559H60.0218V14.5826H52.9869C50.7505 14.5826 48.9353 16.3847 48.9353 18.605V10.0298H63.8476V5.85645H44.0586V24.8219V24.8133Z" fill="black"/>
<path d="M81.4556 20.602L75.3369 5.84863H67.668V27.8622H72.549V11.8284L78.8935 26.3576C79.3147 27.3276 80.2788 27.9528 81.3427 27.9528H81.5729C82.6368 27.9528 83.5965 27.3276 84.0221 26.3576L90.3665 11.8284V27.8622H95.2476V5.84863H87.5786L81.4599 20.602H81.4556Z" fill="black"/>
<path d="M109.306 22.1956L102.693 5.84277H97.1602L105.541 25.5541C106.158 27.007 107.591 27.9512 109.18 27.9512C110.77 27.9512 112.203 27.007 112.819 25.5541L121.201 5.84277H115.894L109.311 22.1956H109.306Z" fill="black"/>
<path d="M181.745 14.4583C177.225 14.0703 176.083 13.5788 176.083 12.0871C176.083 10.5954 177.95 9.71586 181.124 9.71586C183.873 9.71586 186.461 10.4315 188.654 11.8629L190.487 8.02582C187.868 6.27111 184.724 5.3916 180.925 5.3916C174.606 5.3916 170.872 7.96115 170.872 12.3156C170.872 16.67 173.395 18.4937 180.794 19.1404C185.315 19.5284 186.457 20.0199 186.457 21.5116C186.457 23.1068 184.59 23.9518 181.02 23.9518C177.711 23.9518 174.602 23.0077 171.853 21.2228L169.855 25.1892C172.999 27.2716 176.634 28.2761 181.12 28.2761C188.029 28.2761 191.664 25.8704 191.664 21.2874C191.664 16.7045 189.141 15.1093 181.741 14.4626L181.745 14.4583Z" fill="black"/>
<path d="M199.867 5.84863H194.895V27.8622H199.867V5.84863Z" fill="black"/>
<path d="M245.05 5.84863L239.261 13.9367L233.468 5.84863H227.371L236.213 18.1963L229.29 27.8622H235.392L251.151 5.84863H245.05Z" fill="black"/>
<path d="M203.684 10.022H212.095V27.8622H217.067V14.1134C217.067 11.8543 215.222 10.022 212.946 10.022H225.479V5.84863H203.688V10.022H203.684Z" fill="black"/>
<path d="M160.072 19.3889V19.376H161.713C162.851 19.376 163.993 19.1044 164.948 18.4879C166.724 17.3411 167.645 15.4268 167.645 12.8056C167.645 8.27436 164.875 5.84277 159.724 5.84277H146.723V27.8564H151.604V19.3674H157.384L163.111 27.8564H168.587L164.514 21.8205C163.515 20.3417 161.861 19.4407 160.072 19.3846V19.3889ZM151.599 15.0345V10.1843H159.164C161.414 10.1843 162.456 11.025 162.456 12.8056C162.456 14.5861 161.414 15.0345 159.164 15.0345H151.599Z" fill="black"/>
<path d="M123.105 24.8133C123.105 26.499 124.482 27.8614 126.176 27.8614H142.895V23.3087H127.982V18.7559H139.069V14.5826H132.034C129.797 14.5826 127.982 16.3847 127.982 18.605V10.0298H142.895V5.85645H123.105V24.8219V24.8133Z" fill="black"/>
<path d="M4.33423 7.0127L0.152344 11.1645L5.88452 16.8554L0.152344 22.5464L4.33423 26.6982L7.48258 23.5725C11.2172 19.8647 11.2172 13.8461 7.48258 10.1384L4.33423 7.0127Z" fill="#00A66B"/>
<path d="M27.1297 4.41645L22.9435 0.264648L15.9911 7.16707C10.6019 12.5174 10.6019 21.1875 15.9911 26.5378L22.9435 33.4403L27.1254 29.2885L14.5971 16.8503L27.1254 4.41214L27.1297 4.41645Z" fill="#00A66B"/>
<path d="M28.5586 5.84863L24.2378 10.1384C20.4989 13.8504 20.4989 19.8647 24.2378 23.5768L28.5586 27.8665L32.7449 23.7104L25.8445 16.8597L32.7449 10.0091L28.5586 5.85294V5.84863Z" fill="#00A66B"/>
</svg>
